<svg width="19" height="19" viewBox="0 0 19 19" fill="none" xmlns="http://www.w3.org/2000/svg">
<path d="M13.6667 0.125C13.9218 0.125034 14.1681 0.218704 14.3587 0.388245C14.5494 0.557786 14.6712 0.791405 14.701 1.04479L14.7083 1.16667V2.20833H16.7917C17.3173 2.20817 17.8235 2.40667 18.2089 2.76406C18.5943 3.12144 18.8304 3.6113 18.8698 4.13542L18.875 4.29167V16.7917C18.8752 17.3173 18.6767 17.8235 18.3193 18.2089C17.9619 18.5943 17.472 18.8304 16.9479 18.8698L16.7917 18.875H2.20833C1.68273 18.8752 1.17649 18.6767 0.791096 18.3193C0.405699 17.9619 0.169629 17.472 0.130209 16.9479L0.125 16.7917V4.29167C0.124834 3.76607 0.32334 3.25983 0.680726 2.87443C1.03811 2.48903 1.52796 2.25296 2.05208 2.21354L2.20833 2.20833H4.29167V1.16667C4.29196 0.901167 4.39362 0.6458 4.57588 0.452741C4.75814 0.259683 5.00724 0.143505 5.27229 0.127946C5.53733 0.112386 5.79831 0.198619 6.00191 0.369026C6.20551 0.539432 6.33635 0.78115 6.36771 1.04479L6.375 1.16667V2.20833H12.625V1.16667C12.625 0.890399 12.7347 0.625447 12.9301 0.430097C13.1254 0.234747 13.3904 0.125 13.6667 0.125ZM16.7917 9.5H2.20833V16.7917H16.7917V9.5ZM16.7917 4.29167H2.20833V7.41667H16.7917V4.29167Z" fill="#888888"/>
</svg>
