<svg width="25" height="21" viewBox="0 0 25 21" fill="none" xmlns="http://www.w3.org/2000/svg">
<g clip-path="url(#clip0_53_44)">
<path d="M16.6667 2.625C16.9218 2.62503 17.1681 2.70371 17.3587 2.84613C17.5494 2.98854 17.6712 3.18478 17.701 3.39762L17.7083 3.5V4.375H19.7917C20.3173 4.37486 20.8235 4.54161 21.2089 4.84181C21.5943 5.14201 21.8304 5.55349 21.8698 5.99375L21.875 6.125V16.625C21.8752 17.0665 21.6767 17.4917 21.3193 17.8155C20.9619 18.1392 20.472 18.3375 19.9479 18.3706L19.7917 18.375H5.20833C4.68273 18.3751 4.17649 18.2084 3.7911 17.9082C3.4057 17.608 3.16963 17.1965 3.13021 16.7562L3.125 16.625V6.125C3.12483 5.6835 3.32334 5.25825 3.68073 4.93452C4.03811 4.61079 4.52796 4.41249 5.05208 4.37938L5.20833 4.375H7.29167V3.5C7.29196 3.27698 7.39362 3.06247 7.57588 2.9003C7.75814 2.73813 8.00724 2.64054 8.27229 2.62747C8.53733 2.6144 8.79831 2.68684 9.00191 2.82998C9.20551 2.97312 9.33635 3.17617 9.36771 3.39762L9.375 3.5V4.375H15.625V3.5C15.625 3.26794 15.7347 3.04538 15.9301 2.88128C16.1254 2.71719 16.3904 2.625 16.6667 2.625ZM19.7917 10.5H5.20833V16.625H19.7917V10.5ZM19.7917 6.125H5.20833V8.75H19.7917V6.125Z" fill="#FFB90F"/>
</g>
<defs>
<clipPath id="clip0_53_44">
<rect width="25" height="21" fill="white"/>
</clipPath>
</defs>
</svg>
