<svg width="21" height="22" viewBox="0 0 21 22" fill="none" xmlns="http://www.w3.org/2000/svg">
<path d="M11.1328 2.35933C10.9562 2.20907 10.7319 2.12656 10.5 2.12656C10.2681 2.12656 10.0438 2.20907 9.86719 2.35933L2.25 8.83433C2.14215 8.92609 2.05554 9.04021 1.99619 9.16877C1.93683 9.29733 1.90614 9.43726 1.90625 9.57886V19.7031C1.90625 19.8067 1.94741 19.906 2.02066 19.9793C2.09392 20.0526 2.19327 20.0937 2.29688 20.0937H6.20312C6.30673 20.0937 6.40608 20.0526 6.47934 19.9793C6.5526 19.906 6.59375 19.8067 6.59375 19.7031V14.2343C6.59375 13.7163 6.79953 13.2195 7.16581 12.8533C7.53209 12.487 8.02887 12.2812 8.54688 12.2812H12.4563C12.7127 12.2812 12.9667 12.3317 13.2037 12.4299C13.4406 12.528 13.656 12.6719 13.8373 12.8533C14.0187 13.0346 14.1625 13.2499 14.2607 13.4869C14.3589 13.7239 14.4094 13.9778 14.4094 14.2343V19.7031C14.4094 19.8067 14.4505 19.906 14.5238 19.9793C14.597 20.0526 14.6964 20.0937 14.8 20.0937H18.7031C18.8067 20.0937 18.9061 20.0526 18.9793 19.9793C19.0526 19.906 19.0938 19.8067 19.0938 19.7031V9.57808C19.0937 9.43661 19.063 9.29683 19.0036 9.16841C18.9443 9.03999 18.8577 8.926 18.75 8.83433L11.1328 2.35933ZM8.85547 1.16949C9.31455 0.779224 9.89746 0.564941 10.5 0.564941C11.1025 0.564941 11.6855 0.779224 12.1445 1.16949L19.7617 7.64371C20.0421 7.88205 20.2673 8.17849 20.4218 8.5125C20.5762 8.8465 20.6562 9.21009 20.6562 9.57808V19.7031C20.6562 20.2211 20.4505 20.7179 20.0842 21.0842C19.7179 21.4504 19.2211 21.6562 18.7031 21.6562H14.8C14.282 21.6562 13.7852 21.4504 13.4189 21.0842C13.0526 20.7179 12.8469 20.2211 12.8469 19.7031V14.2343C12.8469 14.1307 12.8057 14.0314 12.7325 13.9581C12.6592 13.8849 12.5598 13.8437 12.4563 13.8437H8.54688C8.44327 13.8437 8.34392 13.8849 8.27066 13.9581C8.1974 14.0314 8.15625 14.1307 8.15625 14.2343V19.7031C8.15625 20.2211 7.95047 20.7179 7.58419 21.0842C7.21791 21.4504 6.72113 21.6562 6.20312 21.6562H2.29688C1.77887 21.6562 1.28209 21.4504 0.915807 21.0842C0.549525 20.7179 0.34375 20.2211 0.34375 19.7031V9.57808C0.343771 9.21009 0.42378 8.8465 0.578237 8.5125C0.732695 8.17849 0.957909 7.88205 1.23828 7.64371L8.85547 1.16949Z" fill="#FFB500" fill-opacity="0.94"/>
</svg>
