<svg width="15" height="21" viewBox="0 0 15 21" fill="none" xmlns="http://www.w3.org/2000/svg">
<path d="M7.49992 9.97909C6.80925 9.97909 6.14687 9.70472 5.65849 9.21634C5.17012 8.72797 4.89575 8.06559 4.89575 7.37492C4.89575 6.68425 5.17012 6.02187 5.65849 5.53349C6.14687 5.04512 6.80925 4.77075 7.49992 4.77075C8.19059 4.77075 8.85297 5.04512 9.34134 5.53349C9.82972 6.02187 10.1041 6.68425 10.1041 7.37492C10.1041 7.7169 10.0367 8.05554 9.90586 8.37149C9.77498 8.68744 9.58316 8.97452 9.34134 9.21634C9.09952 9.45816 8.81244 9.64998 8.49649 9.78086C8.18054 9.91173 7.8419 9.97909 7.49992 9.97909ZM7.49992 0.083252C5.56605 0.083252 3.71138 0.851479 2.34393 2.21893C0.976479 3.58638 0.208252 5.44105 0.208252 7.37492C0.208252 12.8437 7.49992 20.9166 7.49992 20.9166C7.49992 20.9166 14.7916 12.8437 14.7916 7.37492C14.7916 5.44105 14.0234 3.58638 12.6559 2.21893C11.2885 0.851479 9.43379 0.083252 7.49992 0.083252Z" fill="#FFB500"/>
</svg>
