<svg width="25" height="25" viewBox="0 0 25 25" fill="none" xmlns="http://www.w3.org/2000/svg">
<path d="M5.20833 5.20833H11.4583C12.0312 5.20833 12.5 4.73958 12.5 4.16667C12.5 3.59375 12.0312 3.125 11.4583 3.125H5.20833C4.0625 3.125 3.125 4.0625 3.125 5.20833V19.7917C3.125 20.9375 4.0625 21.875 5.20833 21.875H11.4583C12.0312 21.875 12.5 21.4062 12.5 20.8333C12.5 20.2604 12.0312 19.7917 11.4583 19.7917H5.20833V5.20833Z" fill="#FFB500"/>
<path d="M21.5104 12.1354L18.6042 9.22915C18.5317 9.15472 18.4387 9.10361 18.337 9.08234C18.2354 9.06108 18.1297 9.07064 18.0335 9.10979C17.9373 9.14894 17.855 9.21591 17.797 9.30212C17.7391 9.38833 17.7082 9.48987 17.7083 9.59373V11.4583H10.4167C9.84375 11.4583 9.375 11.9271 9.375 12.5C9.375 13.0729 9.84375 13.5416 10.4167 13.5416H17.7083V15.4062C17.7083 15.875 18.2708 16.1041 18.5938 15.7708L21.5 12.8646C21.7083 12.6666 21.7083 12.3333 21.5104 12.1354Z" fill="#FFB500"/>
</svg>
