<svg width="19" height="19" viewBox="0 0 19 19" fill="none" xmlns="http://www.w3.org/2000/svg">
<g clip-path="url(#clip0_117_189)">
<path fill-rule="evenodd" clip-rule="evenodd" d="M16.625 7.125C16.625 7.33496 16.5416 7.53633 16.3931 7.68479C16.2447 7.83326 16.0433 7.91667 15.8334 7.91667C15.6234 7.91667 15.422 7.83326 15.2736 7.68479C15.1251 7.53633 15.0417 7.33496 15.0417 7.125V5.07775L12.2416 7.87788C13.155 9.07529 13.5793 10.5751 13.4285 12.0736C13.2778 13.5721 12.5632 14.9573 11.4295 15.9487C10.2958 16.9401 8.82765 17.4637 7.32244 17.4133C5.81722 17.363 4.38738 16.7425 3.32243 15.6776C2.25749 14.6126 1.63703 13.1828 1.58669 11.6776C1.53636 10.1724 2.05991 8.70426 3.05133 7.57055C4.04275 6.43684 5.42795 5.72225 6.92644 5.57147C8.42493 5.42069 9.92473 5.84499 11.1221 6.75846L13.9223 3.95833H11.875C11.6651 3.95833 11.4637 3.87493 11.3152 3.72646C11.1668 3.57799 11.0833 3.37663 11.0833 3.16667C11.0833 2.9567 11.1668 2.75534 11.3152 2.60687C11.4637 2.45841 11.6651 2.375 11.875 2.375H15.6354C16.1817 2.375 16.625 2.81833 16.625 3.36458V7.125ZM7.52085 7.125C6.36605 7.125 5.25855 7.58374 4.44199 8.40031C3.62542 9.21687 3.16668 10.3244 3.16668 11.4792C3.16668 12.634 3.62542 13.7415 4.44199 14.558C5.25855 15.3746 6.36605 15.8333 7.52085 15.8333C8.67565 15.8333 9.78315 15.3746 10.5997 14.558C11.4163 13.7415 11.875 12.634 11.875 11.4792C11.875 10.3244 11.4163 9.21687 10.5997 8.40031C9.78315 7.58374 8.67565 7.125 7.52085 7.125Z" fill="#699BF7"/>
</g>
<defs>
<clipPath id="clip0_117_189">
<rect width="19" height="19" fill="white"/>
</clipPath>
</defs>
</svg>
