<svg width="33" height="39" viewBox="0 0 33 39" fill="none" xmlns="http://www.w3.org/2000/svg">
<path d="M8.8125 4.63925H4.96875C2.8459 4.63925 1.125 6.28482 1.125 8.31475V34.0432C1.125 36.0732 2.8459 37.7188 4.96875 37.7188H28.0312C30.1542 37.7188 31.875 36.0732 31.875 34.0432V8.31475C31.875 6.28484 30.1542 4.63925 28.0312 4.63925H24.1875M8.8125 4.63925V6.47702C8.8125 8.50694 10.5334 10.1525 12.6562 10.1525H20.3438C22.4667 10.1525 24.1875 8.50694 24.1875 6.47702V4.63925M8.8125 4.63925C8.8125 3.11682 10.1032 1.88264 11.6953 1.88264H12.5964C12.6353 1.88264 12.673 1.87058 12.7041 1.84831L13.1777 1.50867C15.099 0.130782 17.7777 0.271352 19.5296 1.842C19.5589 1.8681 19.5973 1.88264 19.6371 1.88264H20.8821C22.7077 1.88264 24.1875 2.89364 24.1875 4.63925M8.8125 23.0167H12.2292L14.3646 17.5035L18.4219 28.53L20.9843 23.0167H24.1875" stroke="#FFB90F" stroke-linecap="round" stroke-linejoin="round"/>
</svg>
