<svg width="31" height="24" viewBox="0 0 31 24" fill="none" xmlns="http://www.w3.org/2000/svg">
<path d="M20.9323 12.3548C20.889 11.7781 20.7571 13.9573 20.8939 13.3534M17.7214 15.2581L17.5767 14.8552L18.122 16.3737L18.0107 16.0638M27.7545 15.665C27.7297 14.7506 27.6687 16.8053 27.6734 16.7367M25.1323 12.7071C25.1461 12.1163 25.1244 14.1606 25.0925 13.705M22.88 16.7555C23.6082 16.8129 24.2931 17.1268 24.7236 17.6948L26.4449 19.7765C27.004 20.4945 26.751 21.4874 25.8118 21.795C25.3827 21.9689 24.8704 21.9179 24.4413 21.7212L23.4112 21.249C22.9835 21.0529 22.4692 21.0025 22.0422 21.1758L21.0582 21.5572C20.6312 21.7305 20.119 21.6795 19.6885 21.4821C18.8317 21.0894 18.5703 20.046 19.1671 19.3961L20.9568 17.4445C21.4257 17.0139 22.1525 16.7 22.88 16.7555Z" stroke="#888888" stroke-width="2.33333" stroke-miterlimit="10" stroke-linecap="square" stroke-linejoin="round"/>
<path d="M7.61953 3.27356C7.72832 2.56124 7.02975 5.1769 7.32083 4.4778M3.73641 5.97771L3.70113 5.45066L3.83411 7.43715L3.80698 7.03181M13.3891 9.05307C13.6043 7.93489 13.0072 10.4175 13.0298 10.3353M11.6127 4.78219C11.7807 4.06734 11.2246 6.5474 11.3128 5.98529M8.36235 9.1252C9.05565 9.38227 9.63966 9.94015 9.90974 10.7415L11.0393 13.7152C11.3952 14.7321 10.8893 15.8742 9.89518 16.0067C9.43226 16.1078 8.94737 15.914 8.58146 15.5645L7.70305 14.7254C7.33834 14.377 6.85122 14.1833 6.39052 14.2843L5.3336 14.4949C4.8729 14.5958 4.388 14.402 4.02091 14.0513C3.29029 13.3534 3.30908 12.0176 4.05968 11.3809L6.31132 9.46824C6.88011 9.06533 7.66922 8.87059 8.36235 9.1252Z" stroke="#888888" stroke-width="2.33333" stroke-miterlimit="10" stroke-linecap="square" stroke-linejoin="round"/>
</svg>
