<svg width="27" height="27" viewBox="0 0 27 27" fill="none" xmlns="http://www.w3.org/2000/svg">
<g clip-path="url(#clip0_22_41)">
<path fill-rule="evenodd" clip-rule="evenodd" d="M16.875 21.375C16.8751 21.9426 16.6607 22.4894 16.2748 22.9056C15.8888 23.3218 15.3598 23.5768 14.7937 23.6194L14.625 23.625H12.375C11.8073 23.6252 11.2606 23.4108 10.8443 23.0248C10.4281 22.6388 10.1732 22.1098 10.1306 21.5437L10.125 21.375H16.875ZM13.5 2.25C15.5418 2.24997 17.5038 3.04301 18.9722 4.46183C20.4406 5.88066 21.3004 7.81435 21.3705 9.855L21.375 10.125V14.3595L23.4247 18.459C23.5142 18.6379 23.5589 18.8358 23.5552 19.0357C23.5514 19.2357 23.4993 19.4318 23.4032 19.6072C23.3071 19.7825 23.1699 19.932 23.0034 20.0428C22.8369 20.1536 22.646 20.2224 22.4471 20.2432L22.3177 20.25H4.6822C4.48214 20.2501 4.28504 20.2016 4.1078 20.1088C3.93056 20.016 3.77847 19.8816 3.66455 19.7171C3.55063 19.5527 3.47828 19.3631 3.45371 19.1645C3.42913 18.9659 3.45307 18.7644 3.52345 18.5771L3.5752 18.459L5.62495 14.3595V10.125C5.62495 8.03642 6.45464 6.03338 7.93149 4.55653C9.40833 3.07969 11.4114 2.25 13.5 2.25ZM13.5 4.5C12.0504 4.50008 10.6569 5.05973 9.60995 6.06224C8.56301 7.06475 7.94349 8.43272 7.88058 9.88088L7.87495 10.125V14.3595C7.87496 14.6385 7.82308 14.9151 7.72195 15.1751L7.63758 15.3664L6.32133 18H20.6797L19.3635 15.3652C19.2386 15.1158 19.1612 14.8453 19.1351 14.5676L19.125 14.3595V10.125C19.125 8.63316 18.5323 7.20242 17.4774 6.14752C16.4225 5.09263 14.9918 4.5 13.5 4.5Z" fill="white"/>
</g>
<defs>
<clipPath id="clip0_22_41">
<rect width="27" height="27" fill="white"/>
</clipPath>
</defs>
</svg>
