<svg width="21" height="21" viewBox="0 0 21 21" fill="none" xmlns="http://www.w3.org/2000/svg">
<path d="M6.39841 14.7705L8.08604 14.2836L18.2472 4.0007C18.3274 3.91857 18.372 3.8082 18.3715 3.69345C18.3709 3.57869 18.3253 3.46875 18.2444 3.38737L17.6358 2.77212C17.5965 2.73171 17.5495 2.69954 17.4976 2.67749C17.4457 2.65544 17.39 2.64394 17.3336 2.64367C17.2772 2.6434 17.2213 2.65437 17.1693 2.67593C17.1172 2.69749 17.0699 2.72921 17.0302 2.76924L6.89579 13.0253L6.39746 14.7695L6.39841 14.7705ZM18.8405 1.55312L19.449 2.16933C20.2885 3.01937 20.2962 4.39074 19.4643 5.23216L8.99358 15.8294L5.38642 16.8682C5.16619 16.9299 4.9305 16.9016 4.73107 16.7897C4.53164 16.6778 4.38476 16.4913 4.32266 16.2712C4.27646 16.113 4.27579 15.9449 4.32075 15.7863L5.37012 12.1063L15.8131 1.53683C16.0117 1.33688 16.2481 1.17847 16.5085 1.07084C16.7689 0.963208 17.0482 0.908512 17.33 0.909939C17.6118 0.911367 17.8905 0.968889 18.1498 1.07915C18.4091 1.18941 18.6439 1.35117 18.8405 1.55312ZM7.80141 2.65808C8.27675 2.65808 8.662 3.04812 8.662 3.5292C8.66276 3.64292 8.64109 3.75568 8.59824 3.86103C8.55539 3.96637 8.49219 4.06224 8.41227 4.14314C8.33234 4.22404 8.23725 4.2884 8.13244 4.33253C8.02762 4.37666 7.91514 4.3997 7.80141 4.40033H4.35908C3.40841 4.40033 2.63791 5.18041 2.63791 6.14162V16.5932C2.63791 17.5554 3.40841 18.3355 4.35908 18.3355H14.6861C15.6367 18.3355 16.4082 17.5554 16.4082 16.5932V13.1097C16.4082 12.6286 16.7935 12.2385 17.2688 12.2385C17.7441 12.2385 18.1294 12.6286 18.1294 13.1106V16.5932C18.1294 18.5175 16.5874 20.0777 14.6861 20.0777H4.35908C2.45775 20.0777 0.916748 18.5175 0.916748 16.5932V6.14162C0.916748 4.21824 2.45775 2.65808 4.35908 2.65808H7.80141Z" fill="#FFB500"/>
</svg>
