<svg width="20" height="21" viewBox="0 0 20 21" fill="none" xmlns="http://www.w3.org/2000/svg">
<g clip-path="url(#clip0_54_55)">
<path fill-rule="evenodd" clip-rule="evenodd" d="M2.35611 0.670819C2.57482 0.441511 2.83746 0.263627 3.1266 0.148956C3.41575 0.0342852 3.7248 -0.0145542 4.03328 0.0056743C4.34176 0.0259028 4.64262 0.114737 4.91594 0.266291C5.18924 0.417845 5.42876 0.628657 5.61861 0.884757L7.86236 3.91138C8.27361 4.46657 8.41861 5.18976 8.25611 5.87226L7.57236 8.74663C7.537 8.89551 7.53891 9.05145 7.5779 9.19933C7.61689 9.3472 7.69162 9.48198 7.79486 9.59057L10.8661 12.8154C10.9697 12.924 11.0982 13.0026 11.2393 13.0435C11.3804 13.0845 11.5291 13.0864 11.6711 13.049L14.4074 12.3311C14.7281 12.2469 15.0629 12.2403 15.3865 12.3119C15.71 12.3836 16.0138 12.5315 16.2749 12.7445L19.1574 15.0991C20.1936 15.9457 20.2886 17.5535 19.3611 18.5261L18.0686 19.8832C17.1436 20.8544 15.7611 21.281 14.4724 20.8046C11.1738 19.5859 8.17895 17.6032 5.70986 15.0033C3.23397 12.4112 1.34562 9.26698 0.184856 5.80401C-0.267644 4.45213 0.138606 2.99919 1.06361 2.02794L2.35611 0.670819Z" fill="#FFB500"/>
</g>
<defs>
<clipPath id="clip0_54_55">
<rect width="20" height="21" fill="white"/>
</clipPath>
</defs>
</svg>
