<svg width="26" height="26" viewBox="0 0 26 26" fill="none" xmlns="http://www.w3.org/2000/svg">
<path d="M4.57381 21.0004L0.650146 24.9241M4.57381 21.0004L6.28371 22.7227C6.81391 23.2567 7.67354 23.2567 8.20374 22.7227L22.7364 8.50791M4.57381 21.0004L2.63116 19.0437C2.10096 18.5096 2.10096 17.6437 2.63116 17.1097L5.41856 14.3109M22.7364 8.50791L19.939 5.69021M22.7364 8.50791L23.8251 9.60446M5.41856 14.3109L9.49798 10.2149M5.41856 14.3109L7.41533 16.3077M23.3338 2.27083L19.939 5.69021M23.3338 2.27083L21.8508 0.7771M23.3338 2.27083L24.8168 3.76457M19.939 5.69021L16.9764 2.70603M16.9764 2.70603L15.8667 1.58825M16.9764 2.70603L13.5774 6.11883M11.5394 12.2563L9.49798 10.2149M9.49798 10.2149L13.5774 6.11883M13.5774 6.11883L15.6634 8.2048" stroke="#FFB90F" stroke-linecap="round" stroke-linejoin="round"/>
</svg>
